<?xml version="1.0" encoding="UTF-8" standalone="no"?>
<svg
    xmlns:svg="http://www.w3.org/2000/svg"
    xmlns="http://www.w3.org/2000/svg"
    id="svg2"
    version="1.1"
    xml:space="preserve"
    width="315"
    height="234"
    viewBox="0 0 315 234"
>
<defs id="defs6">
    <clipPath clipPathUnits="userSpaceOnUse" id="clipPath16">
        <path d="M 0,300 500,300 500,0 0,0 0,300 Z" id="path18" />
    </clipPath>
</defs>
<g id="g10" transform="matrix(1.25,0,0,-1.25,-128.26577,326.74975)">
    <g id="g12">
        <g id="g14" clip-path="url(#clipPath16)"><path id="path22"
            style="fill:#333333;fill-opacity:1;fill-rule:evenodd;stroke:none"
            d="m 237.4502,130.5498 c 5,4.967 11.017,7.45 18.05,7.45 7.033,0 13.033,-2.483 18,-7.45 5,-5 7.5,-11.017 7.5,-18.05 0,-7.033 -2.5,-13.033 -7.5,-18 -4.967,-5 -10.967,-7.5 -18,-7.5 -7.033,0 -13.05,2.5 -18.05,7.5 -4.967,4.967 -7.45,10.967 -7.45,18 0,7.033 2.483,13.05 7.45,18.05 m 87.3,56.85 15.099,-15.1 c 2.368,-2.367 2.384,-4.716 0.051,-7.05 l -17.15,-17.15 c -2.366,-2.366 -4.734,-2.366 -7.1,0 l -59.551,59.55 -59.299,-59.3 c -0.5,-0.5 -0.983,-0.883 -1.45,-1.15 l -53.95,-53.95 c -2.367,-2.366 -4.734,-2.366 -7.1,0 l -17.15,17.151 c -2.333,2.333 -2.317,4.682 0.05,7.049 l 61.15,61.15 0.3,0 55.1,55.1 0.35,0 7.85,7.85 c 4.6,4.6 9.2,6.95 13.8,7.05 l 0.599,0 c 3.467,-0.067 6.934,-1.417 10.401,-4.05 l 13.65,-12.6 -0.1,-0.1 23.2,-23.2 0,13.2 c 0,3.333 1.667,5 5,5 l 11.25,0 c 3.333,0 5,-1.667 5,-5 l 0,-34.45 z" />
        </g>
    </g>
</g>
</svg>
