<?xml version="1.0" encoding="UTF-8" standalone="no"?>
<!-- Created with Inkscape (http://www.inkscape.org/) -->

<svg
   xmlns:dc="http://purl.org/dc/elements/1.1/"
   xmlns:cc="http://creativecommons.org/ns#"
   xmlns:rdf="http://www.w3.org/1999/02/22-rdf-syntax-ns#"
   xmlns:svg="http://www.w3.org/2000/svg"
   xmlns="http://www.w3.org/2000/svg"
   xmlns:sodipodi="http://sodipodi.sourceforge.net/DTD/sodipodi-0.dtd"
   xmlns:inkscape="http://www.inkscape.org/namespaces/inkscape"
   id="svg2"
   version="1.1"
   inkscape:version="0.91 r13725"
   xml:space="preserve"
   width="314.78131"
   height="234"
   viewBox="0 0 314.78131 234"
   sodipodi:docname="cutecasa.svg"><metadata
     id="metadata8"><rdf:RDF><cc:Work
         rdf:about=""><dc:format>image/svg+xml</dc:format><dc:type
           rdf:resource="http://purl.org/dc/dcmitype/StillImage" /><dc:title></dc:title></cc:Work></rdf:RDF></metadata><defs
     id="defs6"><clipPath
       clipPathUnits="userSpaceOnUse"
       id="clipPath16"><path
         d="M 0,300 500,300 500,0 0,0 0,300 Z"
         id="path18"
         inkscape:connector-curvature="0" /></clipPath></defs><sodipodi:namedview
     pagecolor="#ffffff"
     bordercolor="#666166"
     borderopacity="1"
     objecttolerance="10"
     gridtolerance="10"
     guidetolerance="10"
     inkscape:pageopacity="0"
     inkscape:pageshadow="2"
     inkscape:window-width="1920"
     inkscape:window-height="1014"
     id="namedview4"
     showgrid="false"
     inkscape:zoom="1.0074671"
     inkscape:cx="154.25635"
     inkscape:cy="95.171793"
     inkscape:window-x="0"
     inkscape:window-y="27"
     inkscape:window-maximized="1"
     inkscape:current-layer="g10"
     inkscape:snap-page="true"
     inkscape:snap-grids="true"
     borderlayer="false"
     fit-margin-top="16"
     fit-margin-left="16"
     fit-margin-right="16"
     fit-margin-bottom="16" /><g
     id="g10"
     inkscape:groupmode="layer"
     inkscape:label="free_logo_5"
     transform="matrix(1.25,0,0,-1.25,-128.26577,326.74975)"><g
       id="g12"><g
         id="g14"
         clip-path="url(#clipPath16)"><path
           inkscape:connector-curvature="0"
           id="path22"
           style="fill:#333333;fill-opacity:1;fill-rule:evenodd;stroke:none"
           d="m 237.4502,130.5498 c 5,4.967 11.017,7.45 18.05,7.45 7.033,0 13.033,-2.483 18,-7.45 5,-5 7.5,-11.017 7.5,-18.05 0,-7.033 -2.5,-13.033 -7.5,-18 -4.967,-5 -10.967,-7.5 -18,-7.5 -7.033,0 -13.05,2.5 -18.05,7.5 -4.967,4.967 -7.45,10.967 -7.45,18 0,7.033 2.483,13.05 7.45,18.05 m 87.3,56.85 15.099,-15.1 c 2.368,-2.367 2.384,-4.716 0.051,-7.05 l -17.15,-17.15 c -2.366,-2.366 -4.734,-2.366 -7.1,0 l -59.551,59.55 -59.299,-59.3 c -0.5,-0.5 -0.983,-0.883 -1.45,-1.15 l -53.95,-53.95 c -2.367,-2.366 -4.734,-2.366 -7.1,0 l -17.15,17.151 c -2.333,2.333 -2.317,4.682 0.05,7.049 l 61.15,61.15 0.3,0 55.1,55.1 0.35,0 7.85,7.85 c 4.6,4.6 9.2,6.95 13.8,7.05 l 0.599,0 c 3.467,-0.067 6.934,-1.417 10.401,-4.05 l 13.65,-12.6 -0.1,-0.1 23.2,-23.2 0,13.2 c 0,3.333 1.667,5 5,5 l 11.25,0 c 3.333,0 5,-1.667 5,-5 l 0,-34.45 z" /></g></g></g></svg>